<svg width="39" height="34" viewBox="0 0 39 34" fill="none" xmlns="http://www.w3.org/2000/svg">
<path fill-rule="evenodd" clip-rule="evenodd" d="M1 2.19366C0.447715 2.19366 0 2.64138 0 3.19366V33.0001C0 33.5524 0.447716 34.0001 1 34.0001H37.3871C37.9394 34.0001 38.3871 33.5524 38.3871 33.0001V3.19366C38.3871 2.64138 37.9394 2.19366 37.3871 2.19366H1ZM3.01985 4.38739C2.46757 4.38739 2.01985 4.83511 2.01985 5.38739V30.8067C2.01985 31.359 2.46757 31.8067 3.01985 31.8067H35.3662C35.9185 31.8067 36.3662 31.359 36.3662 30.8067V5.38739C36.3662 4.83511 35.9185 4.38739 35.3662 4.38739H3.01985Z" fill="#90B34F"/>
<rect x="6.58057" y="13.1613" width="6.58065" height="2.19355" rx="1.09677" fill="#90B34F"/>
<rect x="7.67749" y="7.67743" width="7.67742" height="2.19355" rx="1.09677" transform="rotate(-90 7.67749 7.67743)" fill="#90B34F"/>
<rect x="28.5161" y="7.67743" width="7.67742" height="2.19355" rx="1.09677" transform="rotate(-90 28.5161 7.67743)" fill="#90B34F"/>
<rect x="6.58057" y="18.6452" width="6.58065" height="2.19355" rx="1.09677" fill="#90B34F"/>
<rect x="6.58057" y="24.1291" width="6.58065" height="2.19355" rx="1.09677" fill="#90B34F"/>
<rect x="16.4517" y="13.1613" width="6.58065" height="2.19355" rx="1.09677" fill="#90B34F"/>
<rect x="16.4517" y="18.6452" width="6.58065" height="2.19355" rx="1.09677" fill="#90B34F"/>
<rect x="16.4517" y="24.1291" width="6.58065" height="2.19355" rx="1.09677" fill="#90B34F"/>
<rect x="26.3225" y="13.1613" width="6.58065" height="2.19355" rx="1.09677" fill="#90B34F"/>
<rect x="26.3225" y="18.6452" width="6.58065" height="2.19355" rx="1.09677" fill="#90B34F"/>
<rect x="26.3225" y="24.1291" width="6.58065" height="2.19355" rx="1.09677" fill="#90B34F"/>
</svg>
