<svg width="37" height="37" viewBox="0 0 37 37" fill="none" xmlns="http://www.w3.org/2000/svg">
<path d="M31.5667 5.42295C28.0727 1.92902 23.4322 0 18.4896 0C13.547 0 8.90647 1.92902 5.41255 5.42295C-1.3274 12.1629 -1.81547 22.9313 4.18851 30.2291C3.35957 31.9257 2.38344 33.0567 1.27561 33.599C0.601617 33.9322 0.22201 34.6604 0.330469 35.4041C0.446675 36.1556 1.01996 36.7366 1.77142 36.8528C2.18202 36.9148 2.6236 36.9535 3.08068 36.9535C5.35057 36.9535 7.73667 36.1711 9.72766 34.7998C12.4081 36.2408 15.4218 37 18.4896 37C23.4322 37 28.0727 35.0787 31.5667 31.5848C35.0606 28.0909 36.9819 23.4426 36.9819 18.5077C36.9819 13.5729 35.0606 8.91688 31.5667 5.42295ZM30.087 30.0974C26.9881 33.1962 22.8667 34.9005 18.4896 34.9005C15.5612 34.9005 12.687 34.1181 10.1847 32.6461C10.0221 32.5532 9.83612 32.499 9.65794 32.499C9.43327 32.499 9.20086 32.5764 9.01493 32.7159C6.64433 34.5519 4.25823 34.8231 3.21238 34.8463C4.45966 33.9167 5.50551 32.4757 6.38093 30.4692C6.54362 30.0974 6.47389 29.6635 6.20275 29.3536C0.469916 22.8771 0.772052 13.0073 6.89224 6.88714C9.99106 3.78832 14.1125 2.08396 18.4896 2.08396C22.8667 2.08396 26.9881 3.78832 30.087 6.88714C36.486 13.294 36.486 23.706 30.087 30.0974Z" fill="#90B34F"/>
<path d="M26.236 12.3954H10.7419C10.1609 12.3954 9.69604 12.8602 9.69604 13.4412C9.69604 14.0223 10.1609 14.4871 10.7419 14.4871H26.236C26.8171 14.4871 27.2819 14.0223 27.2819 13.4412C27.2819 12.8602 26.8093 12.3954 26.236 12.3954Z" fill="#90B34F"/>
<path d="M26.236 17.454H10.7419C10.1609 17.454 9.69604 17.9188 9.69604 18.4999C9.69604 19.0809 10.1609 19.5457 10.7419 19.5457H26.236C26.8171 19.5457 27.2819 19.0809 27.2819 18.4999C27.2819 17.9188 26.8093 17.454 26.236 17.454Z" fill="#90B34F"/>
<path d="M26.236 22.5129H10.7419C10.1609 22.5129 9.69604 22.9778 9.69604 23.5588C9.69604 24.1398 10.1609 24.6046 10.7419 24.6046H26.236C26.8171 24.6046 27.2819 24.1398 27.2819 23.5588C27.2819 22.9778 26.8093 22.5129 26.236 22.5129Z" fill="#90B34F"/>
</svg>
