<svg width="38" height="38" viewBox="0 0 38 38" fill="none" xmlns="http://www.w3.org/2000/svg">
<g clip-path="url(#clip0)">
<path d="M19.7532 5H10C9.44772 5 9 5.44772 9 6C9 6.55228 9.44772 7 10 7H19.7532C20.3055 7 20.7532 6.55228 20.7532 6C20.7532 5.44772 20.3055 5 19.7532 5Z" fill="#90B34F"/>
<path d="M16 10H10C9.44772 10 9 10.4477 9 11C9 11.5523 9.44772 12 10 12H16C16.5523 12 17 11.5523 17 11C17 10.4477 16.5523 10 16 10Z" fill="#90B34F"/>
<path d="M33.8514 6.56532L27.5181 0.231934C27.3696 0.0834961 27.1683 0 26.9584 0H6.375C5.06333 0 4 1.06333 4 2.375V35.625C4 36.9367 5.06333 38 6.375 38H31.7083C33.02 38 34.0833 36.9367 34.0833 35.625V7.125C34.0833 6.91504 33.9999 6.71375 33.8514 6.56532ZM32.5 35.625C32.5 36.0622 32.1455 36.4167 31.7083 36.4167H6.375C5.93778 36.4167 5.58331 36.0622 5.58331 35.625V2.375C5.58331 1.93778 5.93778 1.58331 6.375 1.58331H26.6306L32.5 7.45275V35.625V35.625Z" fill="#90B34F" stroke="#90B34F" stroke-width="0.3" stroke-linejoin="round"/>
<path d="M28.5 6.33344C28.0628 6.33344 27.7083 5.97897 27.7083 5.54175V0.791748H26.125V5.54175C26.125 6.85341 27.1883 7.91675 28.5 7.91675H30.0833V6.33344H28.5Z" fill="#90B34F"/>
<path d="M24.9999 20H22.9998C22.4475 20 21.9998 19.5523 21.9998 19V17C21.9998 15.8954 21.1044 15 19.9998 15H17.9999C16.8952 15 15.9998 15.8954 15.9998 17V19C15.9998 19.5523 15.5521 20 14.9998 20H12.9997C11.8952 20 10.9998 20.8954 10.9998 22V24C10.9998 25.1046 11.8952 26 12.9997 26H14.9998C15.5521 26 15.9998 26.4477 15.9998 27V29C15.9998 30.1046 16.8952 31 17.9998 31H19.9997C21.1043 31 21.9997 30.1046 21.9997 29V27C21.9997 26.4477 22.4475 26 22.9997 26H24.9998C26.1043 26 26.9998 25.1046 26.9998 24V22.0001C26.9998 20.8955 26.1044 20 24.9999 20ZM24.9999 23C24.9999 23.5523 24.5522 24 23.9999 24H20.9998C20.4475 24 19.9997 24.4478 19.9997 25.0001V28.0001C19.9997 28.5524 19.552 29.0001 18.9998 29.0001V29.0001C18.4475 29.0001 17.9998 28.5524 17.9998 28.0001V25.0001C17.9998 24.4478 17.552 24 16.9997 24H13.9997C13.4475 24 12.9997 23.5523 12.9997 23V23C12.9997 22.4478 13.4475 22.0001 13.9997 22.0001H16.9998C17.5521 22.0001 17.9999 21.5523 17.9999 21V18C17.9999 17.4477 18.4476 17 18.9998 17V17C19.5521 17 19.9998 17.4477 19.9998 18V21C19.9998 21.5523 20.4476 22.0001 20.9999 22.0001H23.9999C24.5522 22.0001 24.9999 22.4478 24.9999 23V23Z" fill="#90B34F"/>
</g>
<defs>
<clipPath id="clip0">
<rect width="38" height="38" fill="white"/>
</clipPath>
</defs>
</svg>
