<svg width="39" height="39" viewBox="0 0 39 39" fill="none" xmlns="http://www.w3.org/2000/svg">
<path d="M37.9489 16.9632C37.9477 16.9623 37.9468 16.9611 37.9459 16.9602L22.037 1.05183C21.3589 0.373421 20.4573 0 19.4983 0C18.5393 0 17.6377 0.373421 16.9593 1.05183L1.05871 16.9521C1.05336 16.9575 1.0477 16.9632 1.04264 16.9685C-0.349875 18.3691 -0.347495 20.6414 1.04949 22.0384C1.68773 22.6769 2.53038 23.0465 3.43165 23.0855C3.46855 23.089 3.50544 23.0908 3.54263 23.0908H4.17641V34.7981C4.17641 37.1151 6.06167 39.0001 8.37867 39.0001H14.6028C15.2338 39.0001 15.7453 38.4883 15.7453 37.8575V28.6788C15.7453 27.6216 16.6055 26.7617 17.6627 26.7617H21.3339C22.391 26.7617 23.251 27.6216 23.251 28.6788V37.8575C23.251 38.4883 23.7624 39.0001 24.3935 39.0001H30.6176C32.9349 39.0001 34.8199 37.1151 34.8199 34.7981V23.0908H35.4078C36.3665 23.0908 37.2681 22.7174 37.9468 22.0387C39.3453 20.6396 39.3459 18.3631 37.9489 16.9632V16.9632ZM36.3308 20.423C36.0842 20.6697 35.7563 20.8057 35.4078 20.8057H33.6773C33.0462 20.8057 32.5347 21.3172 32.5347 21.9483V34.7981C32.5347 35.855 31.6748 36.7149 30.6176 36.7149H25.5361V28.6788C25.5361 26.3618 23.6512 24.4765 21.3339 24.4765H17.6627C15.3454 24.4765 13.4602 26.3618 13.4602 28.6788V36.7149H8.37867C7.32178 36.7149 6.46157 35.855 6.46157 34.7981V21.9483C6.46157 21.3172 5.95009 20.8057 5.31899 20.8057H3.61821C3.60036 20.8045 3.5828 20.8036 3.56465 20.8033C3.22426 20.7973 2.90499 20.6623 2.66576 20.4227C2.15696 19.9139 2.15696 19.0859 2.66576 18.5767C2.66606 18.5767 2.66606 18.5765 2.66636 18.5762L2.66725 18.5753L18.5756 2.66751C18.822 2.42084 19.1496 2.28516 19.4983 2.28516C19.8467 2.28516 20.1743 2.42084 20.421 2.66751L36.3258 18.572C36.3281 18.5744 36.3308 18.5767 36.3332 18.5791C36.8393 19.0888 36.8384 19.9151 36.3308 20.423V20.423Z" fill="#90B34F"/>
</svg>
