<svg width="38" height="38" viewBox="0 0 38 38" fill="none" xmlns="http://www.w3.org/2000/svg">
<g clip-path="url(#clip0)">
<path d="M19 18.5C18.3445 18.5 18 18.1555 18 17.5V16H6V17.5625C6 18.218 5.6555 18.75 5 18.75C4.3445 18.75 4 18.218 4 17.5625V15.1875C4 14.532 4.532 14 5.1875 14H18.6458C19.3013 14 20 14.3445 20 15V17.5C20 18.1555 19.6555 18.5 19 18.5Z" fill="#D6D6D6"/>
<path d="M11.9995 29.9993C11.4475 29.9993 10.9995 29.4687 10.9995 28.8151V16.1835C10.9995 15.5298 11.4475 14.9993 11.9995 14.9993C12.5515 14.9993 12.9995 15.5298 12.9995 16.1835V28.8151C12.9995 29.4687 12.5515 29.9993 11.9995 29.9993Z" fill="#D6D6D6"/>
<path d="M13.875 30H10.125C9.504 30 9 29.552 9 29C9 28.448 9.504 28 10.125 28H13.875C14.496 28 15 28.448 15 29C15 29.552 14.496 30 13.875 30Z" fill="#D6D6D6"/>
<path d="M32.3125 16H25.1875C24.532 16 24 15.6555 24 15C24 14.3445 24.532 14 25.1875 14H32.3125C32.968 14 33.5 14.3445 33.5 15C33.5 15.6555 32.968 16 32.3125 16Z" fill="#D6D6D6"/>
<path d="M32.3125 20H25.1875C24.532 20 24 19.6555 24 19C24 18.3445 24.532 18 25.1875 18H32.3125C32.968 18 33.5 18.3445 33.5 19C33.5 19.6555 32.968 20 32.3125 20Z" fill="#D6D6D6"/>
<path d="M32.3208 24.0004H25.1958C24.5403 24.0004 23.9995 23.6559 23.9995 23.0004C23.9995 22.3449 24.5403 22.0004 25.1958 22.0004H32.3208C32.9763 22.0004 33.4995 22.3449 33.4995 23.0004C33.4995 23.6559 32.9763 24.0004 32.3208 24.0004Z" fill="#D6D6D6"/>
<path d="M33.6458 35.9993H4.35417C1.95225 35.9993 0 34.4643 0 32.0624V5.93742C0 3.5355 1.95225 1.99927 4.35417 1.99927H33.6458C36.0478 1.99927 38 3.5355 38 5.93742V32.0624C38 34.4643 36.0478 35.9993 33.6458 35.9993ZM4.35417 3.95825C3.26325 3.95825 2 4.90835 2 5.99927V31.9993C2 33.0902 3.26325 34.0416 4.35417 34.0416H33.6458C34.7368 34.0416 36 33.0902 36 31.9993V5.86071C36 4.76979 34.7368 3.95825 33.6458 3.95825H4.35417Z" fill="#D6D6D6"/>
<path d="M36.8125 9H1.1875C0.532 9 0 8.58 0 8.0625C0 7.545 0.532 7.125 1.1875 7.125H36.8125C37.468 7.125 38 7.545 38 8.0625C38 8.58 37.468 9 36.8125 9Z" fill="#D6D6D6"/>
</g>
<defs>
<clipPath id="clip0">
<rect width="38" height="38" fill="white"/>
</clipPath>
</defs>
</svg>
