<svg width="38" height="34" viewBox="0 0 38 34" fill="none" xmlns="http://www.w3.org/2000/svg">
<path d="M19 16.5007C18.3445 16.5007 18 16.1562 18 15.5007V14.0007H6V15.5632C6 16.2187 5.6555 16.7507 5 16.7507C4.3445 16.7507 4 16.2187 4 15.5632V13.1882C4 12.5327 4.532 12.0007 5.1875 12.0007H18.6458C19.3013 12.0007 20 12.3452 20 13.0007V15.5007C20 16.1562 19.6555 16.5007 19 16.5007Z" fill="#90B34F"/>
<path d="M11.9995 28C11.4475 28 10.9995 27.4695 10.9995 26.8158V14.1842C10.9995 13.5305 11.4475 13 11.9995 13C12.5515 13 12.9995 13.5305 12.9995 14.1842V26.8158C12.9995 27.4695 12.5515 28 11.9995 28Z" fill="#90B34F"/>
<path d="M13.875 28.0007H10.125C9.504 28.0007 9 27.5527 9 27.0007C9 26.4487 9.504 26.0007 10.125 26.0007H13.875C14.496 26.0007 15 26.4487 15 27.0007C15 27.5527 14.496 28.0007 13.875 28.0007Z" fill="#90B34F"/>
<path d="M32.3125 14.0007H25.1875C24.532 14.0007 24 13.6562 24 13.0007C24 12.3452 24.532 12.0007 25.1875 12.0007H32.3125C32.968 12.0007 33.5 12.3452 33.5 13.0007C33.5 13.6562 32.968 14.0007 32.3125 14.0007Z" fill="#90B34F"/>
<path d="M32.3125 18.0007H25.1875C24.532 18.0007 24 17.6562 24 17.0007C24 16.3452 24.532 16.0007 25.1875 16.0007H32.3125C32.968 16.0007 33.5 16.3452 33.5 17.0007C33.5 17.6562 32.968 18.0007 32.3125 18.0007Z" fill="#90B34F"/>
<path d="M32.3208 22.0012H25.1958C24.5403 22.0012 23.9995 21.6567 23.9995 21.0012C23.9995 20.3457 24.5403 20.0012 25.1958 20.0012H32.3208C32.9763 20.0012 33.4995 20.3457 33.4995 21.0012C33.4995 21.6567 32.9763 22.0012 32.3208 22.0012Z" fill="#90B34F"/>
<path d="M33.6458 34H4.35417C1.95225 34 0 32.4651 0 30.0632V3.93815C0 1.53624 1.95225 0 4.35417 0H33.6458C36.0478 0 38 1.53624 38 3.93815V30.0632C38 32.4651 36.0478 34 33.6458 34ZM4.35417 1.95898C3.26325 1.95898 2 2.90908 2 4V30C2 31.0909 3.26325 32.0423 4.35417 32.0423H33.6458C34.7368 32.0423 36 31.0909 36 30V3.86144C36 2.77053 34.7368 1.95898 33.6458 1.95898H4.35417Z" fill="#90B34F"/>
<path d="M36.8125 7.00073H1.1875C0.532 7.00073 0 6.58073 0 6.06323C0 5.54573 0.532 5.12573 1.1875 5.12573H36.8125C37.468 5.12573 38 5.54573 38 6.06323C38 6.58073 37.468 7.00073 36.8125 7.00073Z" fill="#90B34F"/>
</svg>
