<svg width="55" height="63" viewBox="0 0 55 63" fill="none" xmlns="http://www.w3.org/2000/svg">
<path d="M18.7753 0.653904C18.7753 0.653904 3.14298 5.67289 0.482508 22.3922C-2.96626 44.4071 12.5611 57.8621 31.461 62.3534C50.3609 66.8448 58.9017 46.8101 52.6844 37.0614C46.4671 27.3127 41.9789 28.8766 42.3381 16.4292C42.6782 3.9342 28.1807 -2.09239 18.7721 0.653904H18.7753Z" fill="white"/>
<path d="M22.7169 49.8553C23.6102 50.5393 24.3901 51.36 25.0278 52.2869C25.9295 53.4519 26.98 54.4939 28.1523 55.386C31.7568 58.2213 36.6646 59.8043 41.0701 57.9035C44.6301 56.3682 47.2842 53.0116 48.4158 49.3499C48.9726 47.458 49.0116 45.4513 48.5285 43.5392C48.0454 41.6271 47.0581 39.8796 45.6695 38.4792C44.372 37.1504 42.7489 36.1848 40.962 35.6788C38.9341 35.1321 36.8108 35.183 34.7288 35.1321C34.3291 35.1499 33.9302 35.0816 33.5591 34.9319C32.9965 34.6521 32.7041 34.0609 32.2591 33.6604C31.6862 33.1827 30.983 32.8881 30.2407 32.8149C28.3017 32.5606 25.5046 33.0342 24.7449 35.1257C24.3799 36.2873 24.1589 37.4894 24.0869 38.7048C24.0869 38.8068 24.0464 38.9047 23.9743 38.9768C23.9021 39.0489 23.8043 39.0894 23.7023 39.0894C23.6003 39.0894 23.5025 39.0489 23.4304 38.9768C23.3582 38.9047 23.3177 38.8068 23.3177 38.7048L22.9235 33.047C22.9108 32.8584 22.9396 32.6693 23.0078 32.493C23.076 32.3168 23.182 32.1576 23.3184 32.0267C23.4547 31.8958 23.6181 31.7964 23.797 31.7354C23.9759 31.6744 24.166 31.6534 24.3539 31.6738C27.2146 31.9917 33.1427 32.3667 34.6335 30.3483L34.6907 30.2689C34.969 29.8695 35.1109 29.391 35.0953 28.9045C35.0798 28.418 34.9075 27.9496 34.6043 27.5688C34.3011 27.1881 33.883 26.9154 33.4123 26.7914C32.9417 26.6674 32.4435 26.6986 31.9921 26.8805C30.0213 27.672 26.6648 29.1214 24.5192 26.747C21.3247 23.2156 18.7278 21.8297 16.9192 24.0643C15.8162 25.4279 15.7336 29.2295 15.8353 32.4939C15.845 32.587 15.8173 32.6802 15.7583 32.7529C15.6993 32.8257 15.6138 32.872 15.5206 32.8817C15.4275 32.8914 15.3343 32.8637 15.2616 32.8046C15.1888 32.7456 15.1425 32.6601 15.1328 32.567C14.6338 29.7063 14.4463 25.7203 16.2898 22.7134C16.4925 22.3775 16.7652 22.0892 17.0893 21.8681C17.4133 21.6471 17.7813 21.4985 18.168 21.4324C18.5546 21.3664 18.951 21.3844 19.3301 21.4853C19.7092 21.5863 20.0621 21.7677 20.3648 22.0173C23.7246 24.6714 30.6094 29.2168 33.7911 24.878C37.3225 20.072 33.8388 14.8368 32.4784 13.1172C32.447 13.0798 32.4287 13.0331 32.4265 12.9844C32.4242 12.9356 32.4381 12.8874 32.4659 12.8473C32.4938 12.8072 32.534 12.7773 32.5805 12.7623C32.627 12.7473 32.6771 12.7481 32.7231 12.7644C34.0518 13.1776 35.8286 13.4637 36.3594 11.76C36.9443 9.89414 35.4059 7.91706 33.9024 7.02388C32.4831 6.15717 30.8762 5.64476 29.2172 5.52995C27.6787 5.4632 25.4791 6.04806 25.3647 7.91706C25.3647 7.95839 25.3647 7.99971 25.3647 8.04103C25.3647 8.67675 25.174 8.49238 24.729 8.24128C23.502 7.60509 22.1546 7.23468 20.7748 7.15421C17.6217 6.87131 14.3128 7.34175 11.6428 9.13447C9.30014 10.7047 7.70131 13.114 6.67463 15.7046C5.45087 18.7974 4.94548 22.1508 4.74205 25.4533C4.44327 30.2212 4.89781 35.3483 7.31671 39.5694C8.39558 41.4516 9.80006 43.1273 11.4648 44.5185C13.178 45.9488 15.1169 46.9119 17.1449 47.7956C17.7995 48.0965 18.4764 48.3463 19.1696 48.5425C20.1645 48.8 21.1944 49.0034 22.1098 49.4961C22.319 49.604 22.5217 49.7239 22.7169 49.8553Z" fill="#90B34F"/>
</svg>
