<svg width="17" height="17" viewBox="0 0 17 17" fill="none" xmlns="http://www.w3.org/2000/svg">
<g clip-path="url(#clip0)">
<path d="M2.83331 4.78125C2.83331 2.92613 4.34277 1.41667 6.1979 1.41667H12.6671C12.4341 0.601375 11.691 0 10.8021 0H2.65623C1.58169 0 0.708313 0.873375 0.708313 1.94792V12.9271C0.708313 14.0016 1.58169 14.875 2.65623 14.875H2.83331V4.78125Z" fill="#C6D1E1"/>
<path d="M14.3438 2.83331H6.19792C5.12337 2.83331 4.25 3.70669 4.25 4.78123V15.0521C4.25 16.1266 5.12337 17 6.19792 17H14.3438C15.4183 17 16.2917 16.1266 16.2917 15.0521V4.78123C16.2917 3.70669 15.4183 2.83331 14.3438 2.83331ZM12.9271 14.875H7.61458C7.32133 14.875 7.08333 14.637 7.08333 14.3437C7.08333 14.0505 7.32133 13.8125 7.61458 13.8125H12.9271C13.2203 13.8125 13.4583 14.0505 13.4583 14.3437C13.4583 14.637 13.2203 14.875 12.9271 14.875ZM12.9271 12.0416H7.61458C7.32133 12.0416 7.08333 11.8036 7.08333 11.5104C7.08333 11.2171 7.32133 10.9791 7.61458 10.9791H12.9271C13.2203 10.9791 13.4583 11.2171 13.4583 11.5104C13.4583 11.8036 13.2203 12.0416 12.9271 12.0416ZM12.9271 9.56248H7.61458C7.32133 9.56248 7.08333 9.32448 7.08333 9.03123C7.08333 8.73798 7.32133 8.49998 7.61458 8.49998H12.9271C13.2203 8.49998 13.4583 8.73798 13.4583 9.03123C13.4583 9.32448 13.2203 9.56248 12.9271 9.56248ZM12.9271 6.72915H7.61458C7.32133 6.72915 7.08333 6.49115 7.08333 6.1979C7.08333 5.90465 7.32133 5.66665 7.61458 5.66665H12.9271C13.2203 5.66665 13.4583 5.90465 13.4583 6.1979C13.4583 6.49115 13.2203 6.72915 12.9271 6.72915Z" fill="#C6D1E1"/>
</g>
<defs>
<clipPath id="clip0">
<rect width="17" height="17" fill="white"/>
</clipPath>
</defs>
</svg>
