<svg width="19" height="19" viewBox="0 0 19 19" fill="none" xmlns="http://www.w3.org/2000/svg">
<g clip-path="url(#clip0)">
<path d="M16.2175 2.78248C14.4232 0.988182 12.0375 0 9.5 0C6.9625 0 4.57677 0.988182 2.78248 2.78248C0.988182 4.57677 0 6.9625 0 9.5C0 12.0376 0.988182 14.4232 2.78248 16.2175C4.57677 18.0118 6.9625 19 9.5 19C12.0375 19 14.4232 18.0118 16.2175 16.2175C18.0118 14.4232 19 12.0376 19 9.5C19 6.9625 18.0118 4.57677 16.2175 2.78248ZM13.609 12.2968C13.9712 12.6592 13.9712 13.2466 13.609 13.6088C13.4278 13.79 13.1904 13.8806 12.9529 13.8806C12.7155 13.8806 12.478 13.79 12.2968 13.6088L9.5 10.812L6.70317 13.609C6.52197 13.79 6.28453 13.8806 6.04709 13.8806C5.80965 13.8806 5.5722 13.79 5.39101 13.609C5.02876 13.2466 5.02876 12.6592 5.39101 12.297L8.18798 9.5L5.39101 6.70317C5.02876 6.34077 5.02876 5.7534 5.39101 5.39115C5.7534 5.02876 6.34077 5.02876 6.70303 5.39115L9.5 8.18798L12.2968 5.39115C12.6592 5.0289 13.2466 5.02876 13.6088 5.39115C13.9712 5.7534 13.9712 6.34077 13.6088 6.70317L10.812 9.5L13.609 12.2968Z" fill="#C2CFE0"/>
</g>
<defs>
<clipPath id="clip0">
<rect width="19" height="19" fill="white"/>
</clipPath>
</defs>
</svg>
