<svg width="17" height="17" viewBox="0 0 17 17" fill="none" xmlns="http://www.w3.org/2000/svg">
<path d="M10.4985 2.85492L1.14484 12.2092C1.09778 12.2564 1.0638 12.316 1.04762 12.3801L0.01086 16.5414C-0.0201525 16.6667 0.016658 16.7999 0.108077 16.8913C0.177249 16.9605 0.2715 16.9988 0.367908 16.9988C0.397438 16.9988 0.427641 16.9951 0.457036 16.9877L4.61837 15.9508C4.68323 15.9346 4.74215 15.9008 4.78921 15.8537L14.1437 6.5001L10.4985 2.85492Z" fill="#C2CFE0"/>
<path d="M16.4608 1.58027L15.4196 0.539062C14.7237 -0.156831 13.5109 -0.156157 12.8158 0.539062L11.5404 1.81449L15.1854 5.45953L16.4608 4.18411C16.8084 3.83664 16.9999 3.37414 16.9999 2.88226C16.9999 2.39037 16.8084 1.92788 16.4608 1.58027Z" fill="#C2CFE0"/>
</svg>
