<svg width="16" height="16" viewBox="0 0 16 16" fill="none" xmlns="http://www.w3.org/2000/svg">
<path d="M9.88093 2.68701L1.0775 11.4911C1.03321 11.5355 1.00123 11.5916 0.986 11.6519L0.0102247 15.5684C-0.0189635 15.6863 0.0156817 15.8117 0.101724 15.8977C0.166826 15.9628 0.255533 15.9989 0.34627 15.9989C0.374063 15.9989 0.402489 15.9955 0.430155 15.9885L4.34671 15.0126C4.40775 14.9973 4.46321 14.9655 4.5075 14.9212L13.3117 6.11777L9.88093 2.68701Z" fill="#95C541"/>
<path d="M15.4924 1.48706L14.5124 0.507095C13.8574 -0.147864 12.7159 -0.14723 12.0617 0.507095L10.8613 1.70749L14.292 5.13813L15.4924 3.93773C15.8195 3.61069 15.9997 3.17541 15.9997 2.71246C15.9997 2.24951 15.8195 1.81422 15.4924 1.48706Z" fill="#95C541"/>
</svg>
